<svg xmlns="http://www.w3.org/2000/svg" width="720" height="1280" viewBox="0 0 720 1280">
      <defs>
        <linearGradient id="bg" x1="0" y1="0" x2="1" y2="1">
          <stop offset="0%" stop-color="#022c22"/>
          <stop offset="50%" stop-color="#047857"/>
          <stop offset="100%" stop-color="#25D366"/>
        </linearGradient>
        <filter id="softShadow" x="-20%" y="-20%" width="140%" height="140%">
          <feDropShadow dx="0" dy="8" stdDeviation="9" flood-color="#064e3b" flood-opacity="0.23"/>
        </filter>
      </defs>

      <rect width="720" height="1280" fill="url(#bg)"/>
      <circle cx="640" cy="110" r="190" fill="rgba(255,255,255,0.10)"/>
      <circle cx="70" cy="1120" r="220" fill="rgba(255,255,255,0.10)"/>

      <text x="360" y="70" font-family="Arial, Helvetica, sans-serif" font-size="23" font-weight="900" text-anchor="middle" fill="#bbf7d0" letter-spacing="4">GUIDE MODE</text>
      <text x="360" y="124" font-family="Arial, Helvetica, sans-serif" font-size="46" font-weight="950" text-anchor="middle" fill="#ffffff">STEP-BY-STEP GUIDE</text>
      <text x="360" y="164" font-family="Arial, Helvetica, sans-serif" font-size="24" font-weight="700" text-anchor="middle" fill="#dcfce7">How customers buy via WhatsApp</text>

      <g filter="url(#softShadow)">
        <rect x="75" y="205" width="570" height="860" rx="50" fill="#f0fdf4"/>
        <rect x="75" y="205" width="570" height="92" rx="50" fill="#075e54"/>
        <rect x="75" y="250" width="570" height="47" fill="#075e54"/>
        <circle cx="132" cy="252" r="30" fill="#25D366"/>
        <text x="132" y="263" font-family="Arial, Helvetica, sans-serif" font-size="27" font-weight="900" text-anchor="middle" fill="#ffffff">O</text>
        <text x="178" y="247" font-family="Arial, Helvetica, sans-serif" font-size="27" font-weight="900" fill="#ffffff">OresamSub</text>
        <text x="178" y="276" font-family="Arial, Helvetica, sans-serif" font-size="17" font-weight="700" fill="#d1fae5">online • WhatsApp purchase</text>
        <rect x="506" y="232" width="84" height="38" rx="19" fill="rgba(255,255,255,0.16)"/>
        <text x="548" y="257" font-family="Arial, Helvetica, sans-serif" font-size="16" font-weight="900" text-anchor="middle" fill="#ffffff">1/5</text>

        <rect x="102" y="322" width="516" height="628" rx="30" fill="#e7f6ea"/>
        
    <rect x="52" y="350" width="455" height="98" rx="26" fill="#ffffff" filter="url(#softShadow)" />
    <text x="76" y="392" font-family="Arial, Helvetica, sans-serif" font-size="25" font-weight="700" text-anchor="start" fill="#111827">Step 1: Open WhatsApp from</text>
<text x="76" y="423" font-family="Arial, Helvetica, sans-serif" font-size="25" font-weight="700" text-anchor="start" fill="#111827">the announcement button.</text>
    
    <rect x="478" y="460" width="190" height="70" rx="26" fill="#dcf8c6" filter="url(#softShadow)" />
    <text x="502" y="502" font-family="Arial, Helvetica, sans-serif" font-size="25" font-weight="700" text-anchor="start" fill="#111827">Hello</text>
    

        <rect x="102" y="975" width="516" height="62" rx="31" fill="#ffffff"/>
        <text x="132" y="1014" font-family="Arial, Helvetica, sans-serif" font-size="22" font-weight="700" fill="#94a3b8">Message OresamSub...</text>
        <circle cx="585" cy="1006" r="25" fill="#25D366"/>
        <path d="M575 1006 L591 996 L586 1016 Z" fill="#ffffff"/>
      </g>

      <rect x="110" y="1102" width="500" height="76" rx="38" fill="#ffffff"/>
      <text x="360" y="1151" font-family="Arial, Helvetica, sans-serif" font-size="29" font-weight="950" text-anchor="middle" fill="#047857">Tap announcement button to open WhatsApp</text>
      <text x="360" y="1222" font-family="Arial, Helvetica, sans-serif" font-size="27" font-weight="900" text-anchor="middle" fill="#ffffff">OresamSub — Simple WhatsApp buying</text>
    </svg>